<svg width="90" height="19" viewBox="0 0 90 19" fill="none" xmlns="http://www.w3.org/2000/svg">
<path d="M6.85547 0.9375L3.90234 18H0.46875L3.43359 0.9375H6.85547ZM13.4648 0.9375L10.5 18H7.06641L10.0195 0.9375H13.4648ZM18.7969 8.22656L18.3164 10.9688H10.7695L11.25 8.22656H18.7969ZM20.8477 0.9375L20.3789 3.69141H12.0352L12.5156 0.9375H20.8477Z" fill="#26D189"/>
<path d="M29.25 13.4531C29.3203 13.0391 29.2852 12.6914 29.1445 12.4102C29.0117 12.1211 28.8086 11.8789 28.5352 11.6836C28.2695 11.4805 27.9688 11.3086 27.6328 11.168C27.3047 11.0273 26.9766 10.8984 26.6484 10.7812C26.0469 10.5469 25.4531 10.2812 24.8672 9.98438C24.2891 9.6875 23.7617 9.33594 23.2852 8.92969C22.8086 8.51562 22.4375 8.03516 22.1719 7.48828C21.9062 6.93359 21.7969 6.28516 21.8438 5.54297C21.8984 4.69922 22.1367 3.96875 22.5586 3.35156C22.9805 2.73438 23.5156 2.23047 24.1641 1.83984C24.8203 1.44141 25.5312 1.14844 26.2969 0.960938C27.0703 0.773438 27.8281 0.6875 28.5703 0.703125C29.6328 0.71875 30.5781 0.941406 31.4062 1.37109C32.2344 1.79297 32.8828 2.39453 33.3516 3.17578C33.8281 3.94922 34.0508 4.87891 34.0195 5.96484H30.6211C30.6523 5.44922 30.5859 5.00391 30.4219 4.62891C30.2656 4.24609 30.0117 3.95312 29.6602 3.75C29.3164 3.53906 28.875 3.42578 28.3359 3.41016C27.875 3.40234 27.4219 3.47656 26.9766 3.63281C26.5391 3.78125 26.1602 4.01562 25.8398 4.33594C25.5273 4.64844 25.332 5.05469 25.2539 5.55469C25.1914 5.92188 25.2422 6.23828 25.4062 6.50391C25.5781 6.76953 25.8086 6.99609 26.0977 7.18359C26.3945 7.37109 26.707 7.53125 27.0352 7.66406C27.3711 7.78906 27.6719 7.90234 27.9375 8.00391C28.5703 8.23047 29.1797 8.5 29.7656 8.8125C30.3594 9.125 30.8828 9.49609 31.3359 9.92578C31.7891 10.3477 32.1367 10.8477 32.3789 11.4258C32.6211 11.9961 32.7188 12.6602 32.6719 13.418C32.6016 14.2852 32.3672 15.0273 31.9688 15.6445C31.5703 16.2539 31.0547 16.7539 30.4219 17.1445C29.7891 17.5273 29.0977 17.8086 28.3477 17.9883C27.5977 18.168 26.8359 18.2539 26.0625 18.2461C25.2188 18.2305 24.4258 18.0977 23.6836 17.8477C22.9414 17.5977 22.293 17.2383 21.7383 16.7695C21.1836 16.293 20.7539 15.7109 20.4492 15.0234C20.1523 14.3281 20.0156 13.5352 20.0391 12.6445L23.4727 12.6562C23.4414 13.1328 23.4766 13.5508 23.5781 13.9102C23.6875 14.2617 23.8594 14.5586 24.0938 14.8008C24.3359 15.043 24.6328 15.2266 24.9844 15.3516C25.3438 15.4688 25.7617 15.5312 26.2383 15.5391C26.6992 15.5391 27.1445 15.4688 27.5742 15.3281C28.0039 15.1875 28.3711 14.9648 28.6758 14.6602C28.9805 14.3477 29.1719 13.9453 29.25 13.4531ZM49.3242 9.01172L49.2305 9.83203C49.0742 10.9258 48.7812 11.9805 48.3516 12.9961C47.9219 14.0117 47.3594 14.918 46.6641 15.7148C45.9688 16.5039 45.1406 17.1289 44.1797 17.5898C43.2266 18.043 42.1445 18.2578 40.9336 18.2344C39.7773 18.2109 38.7969 17.9609 37.9922 17.4844C37.1953 17 36.5625 16.3594 36.0938 15.5625C35.6328 14.7656 35.3242 13.8789 35.168 12.9023C35.0117 11.918 34.9961 10.9102 35.1211 9.87891L35.2148 9.07031C35.3711 7.97656 35.6641 6.92578 36.0938 5.91797C36.5312 4.91016 37.0977 4.01172 37.793 3.22266C38.4961 2.42578 39.3242 1.80078 40.2773 1.34766C41.2383 0.894531 42.3164 0.679688 43.5117 0.703125C44.668 0.71875 45.6445 0.96875 46.4414 1.45312C47.2461 1.92969 47.8789 2.56641 48.3398 3.36328C48.8086 4.15234 49.1211 5.03906 49.2773 6.02344C49.4336 7 49.4492 7.99609 49.3242 9.01172ZM45.75 9.87891L45.8672 9.03516C45.9297 8.50391 45.9609 7.92969 45.9609 7.3125C45.9688 6.6875 45.8984 6.08984 45.75 5.51953C45.6016 4.94141 45.3359 4.46875 44.9531 4.10156C44.5781 3.72656 44.0352 3.52344 43.3242 3.49219C42.5586 3.46875 41.9023 3.62109 41.3555 3.94922C40.8164 4.27734 40.3633 4.72266 39.9961 5.28516C39.6367 5.83984 39.3516 6.44922 39.1406 7.11328C38.9375 7.76953 38.7891 8.41406 38.6953 9.04688L38.5898 9.89062C38.5195 10.4141 38.4805 10.9922 38.4727 11.625C38.4727 12.25 38.5469 12.8516 38.6953 13.4297C38.8438 14 39.1094 14.4727 39.4922 14.8477C39.875 15.2227 40.4219 15.4258 41.1328 15.457C41.8906 15.4805 42.5391 15.3242 43.0781 14.9883C43.625 14.6523 44.082 14.207 44.4492 13.6523C44.8164 13.0898 45.1055 12.4805 45.3164 11.8242C45.5273 11.1602 45.6719 10.5117 45.75 9.87891ZM61.3828 15.2578L60.9023 18H52.5469L53.0273 15.2578H61.3828ZM56.6367 0.9375L53.6719 18H50.2383L53.1914 0.9375H56.6367ZM67.1836 14.2969L73.1484 0.9375H77.0625L68.625 18H66.0352L67.1836 14.2969ZM65.6719 0.9375L67.4648 14.6016L67.5 18H65.0273L61.9688 0.9375H65.6719ZM87.3516 15.2578L86.8711 18H78.0469L78.5156 15.2578H87.3516ZM82.1367 0.9375L79.1719 18H75.7383L78.6914 0.9375H82.1367ZM87.4805 7.88672L87.0117 10.5586H79.3359L79.8047 7.88672H87.4805ZM89.8125 0.9375L89.332 3.69141H80.5195L81.0117 0.9375H89.8125Z" fill="#1F2423"/>
</svg>
