<svg width="100" height="50" viewBox="0 0 100 50" fill="none" xmlns="http://www.w3.org/2000/svg">
<g clip-path="url(#clip0_8_2)">
<path d="M0.732763 8.00293C0.732763 11.2153 3.04333 13.9206 8.00294 15.7239C11.61 17.0764 13.0188 18.3172 13.0188 20.6835C13.0188 22.9945 11.3283 24.7413 7.77768 24.7413C5.29763 24.7413 2.70531 23.7273 1.18377 22.8258L0 26.5449C1.91629 27.6721 4.67762 28.4612 7.66493 28.4612C14.0336 28.4612 17.8094 25.0801 17.8094 20.2327C17.8094 16.1749 15.3296 13.8083 10.652 12.0605C7.10117 10.652 5.52337 9.63747 5.52337 7.38316C5.52337 5.35388 7.10117 3.66333 10.032 3.66333C12.568 3.66333 14.5408 4.62136 15.6114 5.24185L16.7951 1.69079C15.3296 0.733 12.9063 0 10.1445 0C4.33984 0 0.732763 3.60707 0.732763 8.00293Z" fill="white"/>
<path d="M39.2254 0.620239V17.3024C39.2254 18.2604 39.0562 19.1622 38.7744 19.8382C37.8732 22.0928 35.5621 24.4033 32.2368 24.4033C27.7844 24.4033 26.1504 20.8527 26.1504 15.6674V0.620239H21.191V16.5694C21.191 26.0941 26.3194 28.5179 30.6025 28.5179C35.4494 28.5179 38.3802 25.6429 39.62 23.4453H39.7327L40.0142 27.8977H44.4101C44.2413 25.7561 44.1848 23.2765 44.1848 20.402V0.620239H39.2254Z" fill="white"/>
<path d="M49.3699 2.36729L50.4972 5.69238C52.413 4.39586 55.0618 3.66333 57.6546 3.66333C63.2338 3.60708 63.8543 7.72117 63.8543 9.97548V10.5395C53.3148 10.483 47.4536 14.0898 47.4536 20.6835C47.4536 24.6293 50.2717 28.5179 55.7948 28.5179C59.6832 28.5179 62.6707 26.6011 64.1358 24.4598H64.3048L64.7558 27.8977H69.2082C68.9264 26.0376 68.8137 23.7273 68.8137 21.3602V11.159C68.8137 5.69238 66.7844 0 58.3871 0C54.9496 0 51.6242 0.958021 49.3699 2.36729ZM52.413 20.1207C52.413 14.8223 58.5564 13.8641 63.9668 13.9768V18.7114C63.9668 19.2187 63.9103 19.782 63.741 20.289C62.9525 22.6 60.6417 24.8541 57.0346 24.8541C54.5553 24.8541 52.413 23.3888 52.413 20.1207Z" fill="white"/>
<path d="M78.5636 5.29786H78.4506L78.1689 0.620238H73.7168C73.8855 3.21232 73.9418 6.03038 73.9418 9.52471V50H78.9014V24.2341H79.0144C80.6485 26.9394 83.7483 28.5179 87.4114 28.5179C93.78 28.5179 99.8106 23.671 99.8106 13.8641C99.8106 5.57986 94.8513 0 88.2013 0C83.8048 0 80.5362 1.91629 78.5636 5.29786ZM79.1274 18.8237C78.9579 18.2039 78.9014 17.4709 78.9014 16.7951V12.0606C78.9014 11.4413 79.0707 10.708 79.1834 10.0885C80.1412 6.31262 83.354 3.94509 86.7353 3.94509C91.977 3.94509 94.7948 8.62295 94.7948 14.0898C94.7948 20.3457 91.7514 24.6293 86.5098 24.6293C83.0157 24.6293 79.9724 22.262 79.1274 18.8237Z" fill="white"/>
<path d="M25.5956 49.9944V35.6805H28.6307V49.9944H25.5956Z" fill="white"/>
<path d="M35.2198 49.9944H32.2337V35.6805H40.4382V38.1673H35.2198V41.8584H40.076V44.3354H35.2198V49.9944Z" fill="white"/>
<path d="M47.4092 35.6805C48.7081 35.6805 49.7785 35.8372 50.6205 36.1505C51.469 36.4638 52.0989 36.937 52.5101 37.5701C52.9213 38.2032 53.1269 39.0028 53.1269 39.9688C53.1269 40.6215 53.0029 41.1926 52.7549 41.6822C52.5068 42.1717 52.1805 42.5862 51.7758 42.9256C51.3711 43.265 50.9338 43.5424 50.4639 43.7578L54.6738 49.9944H51.3059L47.8889 44.5019H46.2735V49.9944H43.2384V35.6805H47.4092ZM47.1938 38.1673H46.2735V42.0346H47.2525C48.2577 42.0346 48.9757 41.8682 49.4065 41.5353C49.8438 41.1959 50.0625 40.6998 50.0625 40.0471C50.0625 39.3683 49.8275 38.8853 49.3575 38.5981C48.8941 38.3109 48.1729 38.1673 47.1938 38.1673Z" fill="white"/>
<path d="M69.1738 49.9944H65.3163L59.0894 39.166H59.0013C59.0274 39.6164 59.0503 40.07 59.0698 40.5269C59.0894 40.9838 59.109 41.4407 59.1286 41.8976C59.1482 42.3479 59.1678 42.8016 59.1873 43.2585V49.9944H56.4753V35.6805H60.3035L66.5205 46.4013H66.5891C66.576 45.9574 66.5597 45.5168 66.5401 45.0795C66.5205 44.6422 66.5009 44.2049 66.4814 43.7676C66.4683 43.3303 66.4553 42.893 66.4422 42.4556V35.6805H69.1738V49.9944Z" fill="white"/>
</g>
<defs>
<clipPath id="clip0_8_2">
<rect width="100" height="50" fill="white"/>
</clipPath>
</defs>
</svg>
